<svg xmlns="http://www.w3.org/2000/svg" xmlns:xlink="http://www.w3.org/1999/xlink" width="500" zoomAndPan="magnify" viewBox="0 0 375 374.999991" height="500" preserveAspectRatio="xMidYMid meet" version="1.0"><defs><g/><clipPath id="e4fb08faa6"><path d="M 0 283 L 375 283 L 375 298.433594 L 0 298.433594 Z M 0 283 " clip-rule="nonzero"/></clipPath></defs><rect x="-37.5" width="450" fill="#ffffff" y="-37.499999" height="449.999989" fill-opacity="1"/><rect x="-37.5" width="450" fill="#fbfaf6" y="-37.499999" height="449.999989" fill-opacity="1"/><path fill="#94cfc4" d="M 337.527344 31.296875 C 335.953125 28.480469 294.371094 28.558594 292.132812 31.296875 C 286.554688 38.121094 289.917969 124.761719 290.03125 158.328125 C 289.917969 191.890625 286.554688 278.53125 292.132812 285.355469 C 294.371094 288.09375 335.953125 288.175781 337.527344 285.355469 C 342.257812 276.894531 338.960938 192.605469 338.796875 158.328125 C 338.960938 124.046875 342.257812 39.761719 337.527344 31.296875 Z M 337.527344 31.296875 " fill-opacity="1" fill-rule="nonzero"/><path fill="#a8d7cf" d="M 333.558594 53.1875 C 332.253906 50.855469 297.839844 50.921875 295.988281 53.1875 C 291.371094 58.835938 294.152344 130.546875 294.246094 158.328125 C 294.152344 186.109375 291.371094 257.816406 295.988281 263.464844 C 297.839844 265.730469 332.253906 265.800781 333.558594 263.464844 C 337.472656 256.460938 334.742188 186.699219 334.609375 158.328125 C 334.742188 129.957031 337.472656 60.195312 333.558594 53.1875 Z M 333.558594 53.1875 " fill-opacity="1" fill-rule="nonzero"/><path fill="#ed8876" d="M 217.417969 31.296875 C 215.84375 28.480469 174.257812 28.558594 172.023438 31.296875 C 166.445312 38.121094 169.808594 124.761719 169.921875 158.328125 C 169.808594 191.890625 166.445312 278.53125 172.023438 285.355469 C 174.257812 288.09375 215.84375 288.175781 217.417969 285.355469 C 222.148438 276.894531 218.851562 192.605469 218.683594 158.328125 C 218.847656 124.046875 222.148438 39.761719 217.417969 31.296875 Z M 217.417969 31.296875 " fill-opacity="1" fill-rule="nonzero"/><path fill="#eea193" d="M 209.320312 75.945312 C 208.300781 74.117188 186.496094 74.816406 185.046875 76.59375 C 181.429688 81.019531 178.445312 136.558594 178.519531 158.328125 C 178.445312 180.097656 176.265625 236.285156 179.882812 240.710938 C 181.332031 242.484375 208.300781 242.539062 209.320312 240.710938 C 212.390625 235.222656 210.25 180.558594 210.144531 158.328125 C 210.25 136.097656 212.386719 81.433594 209.320312 75.945312 Z M 209.320312 75.945312 " fill-opacity="1" fill-rule="nonzero"/><path fill="#f7b07e" d="M 166.746094 53.367188 C 165.171875 50.792969 123.589844 50.867188 121.351562 53.367188 C 115.773438 59.605469 119.136719 138.777344 119.25 169.453125 C 119.136719 200.125 115.773438 279.300781 121.351562 285.539062 C 123.589844 288.039062 165.171875 288.113281 166.746094 285.539062 C 171.476562 277.804688 168.179688 200.78125 168.015625 169.453125 C 168.179688 138.128906 171.476562 61.101562 166.746094 53.367188 Z M 166.746094 53.367188 " fill-opacity="1" fill-rule="nonzero"/><path fill="#f3966e" d="M 168.75 272.765625 C 169.019531 268.226562 169.175781 262.757812 169.242188 256.679688 L 118.246094 256.679688 C 118.355469 262.769531 118.558594 268.234375 118.890625 272.765625 Z M 168.75 272.765625 " fill-opacity="1" fill-rule="nonzero"/><path fill="#f3966e" d="M 118.160156 89.207031 C 118.144531 91.96875 118.136719 94.816406 118.144531 97.722656 L 169.257812 97.722656 C 169.277344 94.8125 169.285156 91.96875 169.285156 89.207031 Z M 118.160156 89.207031 " fill-opacity="1" fill-rule="nonzero"/><path fill="#f3966e" d="M 169.246094 82.582031 C 169.214844 79.785156 169.167969 77.109375 169.101562 74.59375 L 118.445312 74.59375 C 118.355469 77.109375 118.285156 79.785156 118.238281 82.582031 Z M 169.246094 82.582031 " fill-opacity="1" fill-rule="nonzero"/><path fill="#f7b07e" d="M 289.007812 33.558594 C 287.695312 30.605469 246.28125 26.878906 243.804688 29.398438 C 237.625 35.683594 233.042969 122.269531 230.085938 155.703125 C 226.902344 189.117188 215.621094 275.085938 220.550781 282.394531 C 222.53125 285.324219 263.929688 289.214844 265.753906 286.550781 C 271.242188 278.554688 275.671875 194.320312 278.644531 160.171875 C 281.945312 126.050781 292.941406 42.417969 289.007812 33.558594 Z M 289.007812 33.558594 " fill-opacity="1" fill-rule="nonzero"/><path fill="#f49e6d" d="M 245.101562 65.90625 C 259.171875 69.605469 273.796875 70.601562 287.800781 74.40625 C 288.136719 70.785156 288.441406 67.285156 288.707031 63.960938 C 271.957031 60.886719 255.222656 57.742188 238.515625 54.457031 C 238.125 57.707031 237.746094 61.183594 237.375 64.816406 C 239.941406 64.882812 242.53125 65.230469 245.101562 65.90625 Z M 245.101562 65.90625 " fill-opacity="1" fill-rule="nonzero"/><path fill="#f49e6d" d="M 270.699219 259.46875 C 271.246094 254.429688 271.773438 248.921875 272.292969 243.128906 C 271.769531 243.066406 271.25 243.007812 270.726562 242.941406 C 254.308594 240.894531 237.738281 238.84375 221.714844 234.722656 C 221.207031 240.148438 220.753906 245.378906 220.378906 250.265625 C 236.890625 254.515625 253.792969 257.066406 270.699219 259.46875 Z M 270.699219 259.46875 " fill-opacity="1" fill-rule="nonzero"/><path fill="#ed8876" d="M 110.058594 246.429688 C 110.058594 260.9375 103.566406 274.480469 91.589844 282.550781 C 88.308594 284.761719 82.902344 287.988281 79.152344 289.277344 C 74.320312 290.933594 68.511719 292.230469 63.378906 292.230469 C 45.652344 292.230469 28.597656 281.292969 22.683594 264.539062 C 20.867188 259.386719 18.878906 251.921875 18.878906 246.429688 C 18.878906 235.058594 18.878906 224.261719 28.683594 215.171875 C 35.324219 209.023438 48.570312 203.363281 61.890625 207.140625 C 62.710938 207.375 63.601562 207.085938 64.46875 207.085938 C 65.34375 207.085938 66.242188 207.382812 67.074219 207.140625 C 80.476562 203.246094 94.246094 207.261719 100.839844 217.71875 C 105.363281 224.886719 110.058594 236.152344 110.058594 246.429688 Z M 110.058594 246.429688 " fill-opacity="1" fill-rule="nonzero"/><path stroke-linecap="round" transform="matrix(1.260928, 0, 0, 1.261581, -80.447203, -104.771741)" fill="none" stroke-linejoin="miter" d="M 109.704926 235.237891 C 111.139262 234.980897 113.019697 237.445561 113.50607 238.619064 C 114.004835 239.826626 114.311528 241.071343 114.683278 242.29129 C 115.101497 243.675342 115.191337 245.136801 115.398897 246.588972 C 115.501128 247.319701 115.75206 248.106165 115.683905 248.852376 " stroke="#ed8876" stroke-width="3.457" stroke-opacity="1" stroke-miterlimit="10"/><path stroke-linecap="round" transform="matrix(1.260928, 0, 0, 1.261581, -80.447203, -104.771741)" fill="none" stroke-linejoin="round" d="M 121.715549 232.863019 C 121.436737 233.677349 121.712451 234.745577 121.554458 235.615641 C 121.349995 236.736506 121.034008 237.875949 120.315291 238.76459 C 119.550106 239.715158 116.588497 241.111595 115.408191 240.40254 C 114.057499 239.58821 115.919347 236.169881 116.529637 235.346262 C 117.524068 234.005558 119.754568 232.553388 121.501793 232.717492 " stroke="#ed8876" stroke-width="3.457" stroke-opacity="1" stroke-miterlimit="10"/><path fill="#ee9d8f" d="M 42.449219 215.261719 C 41.386719 215.632812 40.351562 215.664062 39.296875 216.078125 C 38.484375 216.398438 37.664062 216.761719 36.890625 217.152344 C 35.203125 218.003906 33.769531 219.378906 32.863281 221.019531 C 31.871094 222.816406 31 224.488281 31 226.644531 C 31 228.339844 30.8125 230.820312 31.734375 232.203125 C 32.519531 231.03125 32.558594 228.847656 32.996094 227.394531 C 33.558594 225.515625 34.714844 223.84375 35.832031 222.226562 C 37.125 220.351562 38.867188 218.808594 40.933594 217.863281 C 42.453125 217.164062 44.113281 216.109375 45.765625 215.871094 C 43.9375 215.078125 41.578125 215.683594 39.71875 215.890625 " fill-opacity="1" fill-rule="nonzero"/><g clip-path="url(#e4fb08faa6)"><path fill="#ca9e67" d="M 374.914062 290.742188 C 374.914062 294.460938 372.671875 297.472656 369.902344 297.472656 C 367.140625 297.472656 364.375 297.476562 361.613281 297.472656 C 353.738281 297.460938 345.859375 297.460938 337.984375 297.46875 C 326.496094 297.480469 315.003906 297.484375 303.515625 297.476562 C 289.113281 297.46875 275.152344 297.832031 260.75 297.839844 C 232.359375 297.839844 204.105469 298.320312 175.714844 298.3125 C 155.816406 298.3125 135.167969 298.316406 115.269531 298.3125 C 100.679688 298.3125 86.261719 297.4375 71.671875 297.429688 C 60.507812 297.421875 48.882812 297.878906 37.71875 297.921875 C 28.460938 297.953125 19.667969 297.460938 10.410156 297.203125 C 5.777344 297.078125 1.226562 297.984375 0.417969 292.171875 C -0.0273438 288.945312 1.308594 284.015625 5.433594 284.015625 C 8.144531 284.015625 10.855469 283.996094 13.570312 284.007812 C 21.375 284.039062 29.183594 284.058594 36.988281 284.042969 C 68.9375 283.976562 100.886719 284.132812 132.839844 284.019531 C 165.117188 283.925781 197.398438 284.226562 229.679688 284.046875 C 253.636719 283.914062 277.589844 284.042969 301.546875 284.183594 C 312.71875 284.253906 323.871094 283.945312 335.035156 283.722656 C 345.117188 283.523438 353.75 283.597656 365.324219 284.277344 C 370.113281 284.558594 374.914062 284.109375 374.914062 290.742188 Z M 374.914062 290.742188 " fill-opacity="1" fill-rule="nonzero"/></g><g fill="#9c7150" fill-opacity="1"><g transform="translate(102.086486, 341.598177)"><g><path d="M 1.09375 -31.8125 L 8.8125 -31.8125 L 17.125 -9.40625 L 25.4375 -31.8125 L 32.984375 -31.8125 L 20.125 0.234375 L 13.953125 0.234375 Z M 1.09375 -31.8125 "/></g></g></g><g fill="#9c7150" fill-opacity="1"><g transform="translate(132.836731, 341.598177)"><g><path d="M 3.8125 -31.8125 L 27.8125 -31.8125 L 27.8125 -25.578125 L 10.765625 -25.578125 L 10.765625 -19.125 L 25.765625 -19.125 L 25.765625 -12.90625 L 10.765625 -12.90625 L 10.765625 -6.21875 L 28.03125 -6.21875 L 28.03125 0 L 3.8125 0 Z M 3.8125 -31.8125 "/></g></g></g><g fill="#9c7150" fill-opacity="1"><g transform="translate(159.953096, 341.598177)"><g><path d="M 3.8125 -31.8125 L 18.359375 -31.8125 C 22.390625 -31.8125 25.476562 -30.734375 27.625 -28.578125 C 29.445312 -26.765625 30.359375 -24.34375 30.359375 -21.3125 L 30.359375 -21.21875 C 30.359375 -18.644531 29.726562 -16.546875 28.46875 -14.921875 C 27.207031 -13.304688 25.5625 -12.117188 23.53125 -11.359375 L 31.3125 0 L 23.125 0 L 16.3125 -10.171875 L 10.8125 -10.171875 L 10.8125 0 L 3.8125 0 Z M 17.90625 -16.359375 C 19.632812 -16.359375 20.957031 -16.765625 21.875 -17.578125 C 22.800781 -18.398438 23.265625 -19.492188 23.265625 -20.859375 L 23.265625 -20.953125 C 23.265625 -22.460938 22.78125 -23.59375 21.8125 -24.34375 C 20.84375 -25.101562 19.492188 -25.484375 17.765625 -25.484375 L 10.8125 -25.484375 L 10.8125 -16.359375 Z M 17.90625 -16.359375 "/></g></g></g><g fill="#9c7150" fill-opacity="1"><g transform="translate(189.47692, 341.598177)"><g><path d="M 3.8125 -31.8125 L 18.359375 -31.8125 C 22.390625 -31.8125 25.476562 -30.734375 27.625 -28.578125 C 29.445312 -26.765625 30.359375 -24.34375 30.359375 -21.3125 L 30.359375 -21.21875 C 30.359375 -18.644531 29.726562 -16.546875 28.46875 -14.921875 C 27.207031 -13.304688 25.5625 -12.117188 23.53125 -11.359375 L 31.3125 0 L 23.125 0 L 16.3125 -10.171875 L 10.8125 -10.171875 L 10.8125 0 L 3.8125 0 Z M 17.90625 -16.359375 C 19.632812 -16.359375 20.957031 -16.765625 21.875 -17.578125 C 22.800781 -18.398438 23.265625 -19.492188 23.265625 -20.859375 L 23.265625 -20.953125 C 23.265625 -22.460938 22.78125 -23.59375 21.8125 -24.34375 C 20.84375 -25.101562 19.492188 -25.484375 17.765625 -25.484375 L 10.8125 -25.484375 L 10.8125 -16.359375 Z M 17.90625 -16.359375 "/></g></g></g><g fill="#9c7150" fill-opacity="1"><g transform="translate(219.000745, 341.598177)"><g><path d="M 3.8125 -31.8125 L 18.578125 -31.8125 C 22.242188 -31.8125 25.019531 -30.867188 26.90625 -28.984375 C 28.351562 -27.535156 29.078125 -25.734375 29.078125 -23.578125 L 29.078125 -23.484375 C 29.078125 -22.578125 28.960938 -21.773438 28.734375 -21.078125 C 28.515625 -20.378906 28.210938 -19.75 27.828125 -19.1875 C 27.453125 -18.632812 27.015625 -18.144531 26.515625 -17.71875 C 26.015625 -17.289062 25.476562 -16.925781 24.90625 -16.625 C 26.75 -15.925781 28.203125 -14.976562 29.265625 -13.78125 C 30.328125 -12.59375 30.859375 -10.9375 30.859375 -8.8125 L 30.859375 -8.71875 C 30.859375 -7.269531 30.578125 -6 30.015625 -4.90625 C 29.453125 -3.8125 28.644531 -2.898438 27.59375 -2.171875 C 26.550781 -1.453125 25.296875 -0.910156 23.828125 -0.546875 C 22.359375 -0.179688 20.734375 0 18.953125 0 L 3.8125 0 Z M 22.125 -22.40625 C 22.125 -23.457031 21.726562 -24.265625 20.9375 -24.828125 C 20.15625 -25.390625 19.019531 -25.671875 17.53125 -25.671875 L 10.625 -25.671875 L 10.625 -18.953125 L 17.078125 -18.953125 C 18.628906 -18.953125 19.859375 -19.210938 20.765625 -19.734375 C 21.671875 -20.265625 22.125 -21.125 22.125 -22.3125 Z M 23.90625 -9.671875 C 23.90625 -10.734375 23.492188 -11.570312 22.671875 -12.1875 C 21.859375 -12.8125 20.539062 -13.125 18.71875 -13.125 L 10.625 -13.125 L 10.625 -6.140625 L 18.953125 -6.140625 C 20.492188 -6.140625 21.703125 -6.414062 22.578125 -6.96875 C 23.460938 -7.53125 23.90625 -8.40625 23.90625 -9.59375 Z M 23.90625 -9.671875 "/></g></g></g><g fill="#9c7150" fill-opacity="1"><g transform="translate(248.479148, 341.598177)"><g><path d="M 19.265625 0.546875 C 16.804688 0.546875 14.546875 0.113281 12.484375 -0.75 C 10.429688 -1.613281 8.65625 -2.78125 7.15625 -4.25 C 5.65625 -5.71875 4.488281 -7.441406 3.65625 -9.421875 C 2.820312 -11.410156 2.40625 -13.539062 2.40625 -15.8125 L 2.40625 -15.90625 C 2.40625 -18.175781 2.828125 -20.300781 3.671875 -22.28125 C 4.523438 -24.269531 5.703125 -26.015625 7.203125 -27.515625 C 8.703125 -29.015625 10.488281 -30.191406 12.5625 -31.046875 C 14.632812 -31.910156 16.898438 -32.34375 19.359375 -32.34375 C 21.804688 -32.34375 24.0625 -31.910156 26.125 -31.046875 C 28.1875 -30.191406 29.96875 -29.03125 31.46875 -27.5625 C 32.96875 -26.09375 34.132812 -24.363281 34.96875 -22.375 C 35.800781 -20.394531 36.21875 -18.269531 36.21875 -16 L 36.21875 -15.90625 C 36.21875 -13.632812 35.789062 -11.503906 34.9375 -9.515625 C 34.09375 -7.535156 32.921875 -5.796875 31.421875 -4.296875 C 29.921875 -2.796875 28.132812 -1.613281 26.0625 -0.75 C 23.988281 0.113281 21.722656 0.546875 19.265625 0.546875 Z M 19.359375 -5.90625 C 20.753906 -5.90625 22.039062 -6.160156 23.21875 -6.671875 C 24.394531 -7.191406 25.398438 -7.90625 26.234375 -8.8125 C 27.066406 -9.71875 27.71875 -10.769531 28.1875 -11.96875 C 28.65625 -13.164062 28.890625 -14.445312 28.890625 -15.8125 L 28.890625 -15.90625 C 28.890625 -17.269531 28.65625 -18.554688 28.1875 -19.765625 C 27.71875 -20.972656 27.050781 -22.03125 26.1875 -22.9375 C 25.332031 -23.851562 24.3125 -24.578125 23.125 -25.109375 C 21.945312 -25.640625 20.660156 -25.90625 19.265625 -25.90625 C 17.835938 -25.90625 16.539062 -25.644531 15.375 -25.125 C 14.207031 -24.613281 13.207031 -23.898438 12.375 -22.984375 C 11.539062 -22.078125 10.890625 -21.023438 10.421875 -19.828125 C 9.953125 -18.628906 9.71875 -17.351562 9.71875 -16 L 9.71875 -15.90625 C 9.71875 -14.539062 9.953125 -13.25 10.421875 -12.03125 C 10.890625 -10.820312 11.554688 -9.765625 12.421875 -8.859375 C 13.285156 -7.953125 14.300781 -7.234375 15.46875 -6.703125 C 16.632812 -6.171875 17.929688 -5.90625 19.359375 -5.90625 Z M 19.359375 -5.90625 "/></g></g></g><g fill="#9c7150" fill-opacity="1"><g transform="translate(154.237316, 357.379947)"><g><path d="M 5.21875 -10.28125 L 6.296875 -10.28125 L 10.953125 0 L 9.71875 0 L 8.515625 -2.703125 L 2.96875 -2.703125 L 1.75 0 L 0.5625 0 Z M 8.078125 -3.734375 L 5.75 -8.953125 L 3.421875 -3.734375 Z M 8.078125 -3.734375 "/></g></g></g><g fill="#9c7150" fill-opacity="1"><g transform="translate(166.189412, 357.379947)"><g><path d="M 6.109375 0.171875 C 5.367188 0.171875 4.6875 0.0351562 4.0625 -0.234375 C 3.445312 -0.503906 2.910156 -0.875 2.453125 -1.34375 C 1.992188 -1.820312 1.632812 -2.378906 1.375 -3.015625 C 1.125 -3.660156 1 -4.347656 1 -5.078125 L 1 -5.109375 C 1 -5.828125 1.125 -6.503906 1.375 -7.140625 C 1.632812 -7.785156 1.992188 -8.347656 2.453125 -8.828125 C 2.910156 -9.316406 3.453125 -9.695312 4.078125 -9.96875 C 4.710938 -10.25 5.40625 -10.390625 6.15625 -10.390625 C 6.625 -10.390625 7.046875 -10.347656 7.421875 -10.265625 C 7.796875 -10.191406 8.144531 -10.082031 8.46875 -9.9375 C 8.789062 -9.800781 9.085938 -9.632812 9.359375 -9.4375 C 9.628906 -9.238281 9.890625 -9.015625 10.140625 -8.765625 L 9.359375 -7.921875 C 8.921875 -8.328125 8.445312 -8.660156 7.9375 -8.921875 C 7.4375 -9.191406 6.835938 -9.328125 6.140625 -9.328125 C 5.578125 -9.328125 5.054688 -9.21875 4.578125 -9 C 4.097656 -8.789062 3.675781 -8.492188 3.3125 -8.109375 C 2.957031 -7.734375 2.679688 -7.289062 2.484375 -6.78125 C 2.285156 -6.269531 2.1875 -5.722656 2.1875 -5.140625 L 2.1875 -5.109375 C 2.1875 -4.515625 2.285156 -3.960938 2.484375 -3.453125 C 2.679688 -2.941406 2.957031 -2.492188 3.3125 -2.109375 C 3.675781 -1.734375 4.097656 -1.4375 4.578125 -1.21875 C 5.054688 -1 5.578125 -0.890625 6.140625 -0.890625 C 6.835938 -0.890625 7.441406 -1.015625 7.953125 -1.265625 C 8.460938 -1.523438 8.957031 -1.890625 9.4375 -2.359375 L 10.203125 -1.625 C 9.941406 -1.351562 9.664062 -1.101562 9.375 -0.875 C 9.09375 -0.65625 8.785156 -0.46875 8.453125 -0.3125 C 8.117188 -0.164062 7.757812 -0.0507812 7.375 0.03125 C 7 0.125 6.578125 0.171875 6.109375 0.171875 Z M 6.109375 0.171875 "/></g></g></g><g fill="#9c7150" fill-opacity="1"><g transform="translate(177.441033, 357.379947)"><g><path d="M 5.21875 -10.28125 L 6.296875 -10.28125 L 10.953125 0 L 9.71875 0 L 8.515625 -2.703125 L 2.96875 -2.703125 L 1.75 0 L 0.5625 0 Z M 8.078125 -3.734375 L 5.75 -8.953125 L 3.421875 -3.734375 Z M 8.078125 -3.734375 "/></g></g></g><g fill="#9c7150" fill-opacity="1"><g transform="translate(189.39313, 357.379947)"><g><path d="M 1.4375 -10.21875 L 4.984375 -10.21875 C 5.785156 -10.21875 6.519531 -10.085938 7.1875 -9.828125 C 7.851562 -9.566406 8.425781 -9.207031 8.90625 -8.75 C 9.382812 -8.300781 9.753906 -7.765625 10.015625 -7.140625 C 10.285156 -6.523438 10.421875 -5.859375 10.421875 -5.140625 L 10.421875 -5.109375 C 10.421875 -4.390625 10.285156 -3.71875 10.015625 -3.09375 C 9.753906 -2.46875 9.382812 -1.925781 8.90625 -1.46875 C 8.425781 -1.007812 7.851562 -0.648438 7.1875 -0.390625 C 6.519531 -0.128906 5.785156 0 4.984375 0 L 1.4375 0 Z M 2.59375 -9.15625 L 2.59375 -1.0625 L 4.984375 -1.0625 C 5.628906 -1.0625 6.210938 -1.160156 6.734375 -1.359375 C 7.265625 -1.566406 7.710938 -1.851562 8.078125 -2.21875 C 8.441406 -2.582031 8.722656 -3.007812 8.921875 -3.5 C 9.117188 -3.988281 9.21875 -4.515625 9.21875 -5.078125 L 9.21875 -5.109375 C 9.21875 -5.671875 9.117188 -6.195312 8.921875 -6.6875 C 8.722656 -7.175781 8.441406 -7.601562 8.078125 -7.96875 C 7.710938 -8.332031 7.265625 -8.617188 6.734375 -8.828125 C 6.210938 -9.046875 5.628906 -9.15625 4.984375 -9.15625 Z M 2.59375 -9.15625 "/></g></g></g><g fill="#9c7150" fill-opacity="1"><g transform="translate(201.228472, 357.379947)"><g><path d="M 1.4375 -10.21875 L 8.828125 -10.21875 L 8.828125 -9.171875 L 2.59375 -9.171875 L 2.59375 -5.671875 L 8.171875 -5.671875 L 8.171875 -4.625 L 2.59375 -4.625 L 2.59375 -1.046875 L 8.90625 -1.046875 L 8.90625 0 L 1.4375 0 Z M 1.4375 -10.21875 "/></g></g></g><g fill="#9c7150" fill-opacity="1"><g transform="translate(211.429381, 357.379947)"><g><path d="M 1.4375 -10.21875 L 2.609375 -10.21875 L 6.328125 -4.640625 L 10.0625 -10.21875 L 11.21875 -10.21875 L 11.21875 0 L 10.0625 0 L 10.0625 -8.28125 L 6.34375 -2.796875 L 6.296875 -2.796875 L 2.5625 -8.265625 L 2.5625 0 L 1.4375 0 Z M 1.4375 -10.21875 "/></g></g></g><g fill="#9c7150" fill-opacity="1"><g transform="translate(224.519741, 357.379947)"><g><path d="M 4.640625 -4.046875 L 0.390625 -10.21875 L 1.796875 -10.21875 L 5.234375 -5.109375 L 8.71875 -10.21875 L 10.0625 -10.21875 L 5.8125 -4.0625 L 5.8125 0 L 4.640625 0 Z M 4.640625 -4.046875 "/></g></g></g></svg>