<svg xmlns="http://www.w3.org/2000/svg" xmlns:xlink="http://www.w3.org/1999/xlink" width="500" zoomAndPan="magnify" viewBox="0 0 375 374.999991" height="500" preserveAspectRatio="xMidYMid meet" version="1.0"><defs><g/><clipPath id="1e9d5bcb26"><path d="M 116.25 125 L 162 125 L 162 175 L 116.25 175 Z M 116.25 125 " clip-rule="nonzero"/></clipPath><clipPath id="ec9d50b7bd"><path d="M 116.25 179 L 249 179 L 249 184.742188 L 116.25 184.742188 Z M 116.25 179 " clip-rule="nonzero"/></clipPath></defs><path fill="#94cfc4" d="M 235.730469 90.28125 C 235.175781 89.285156 220.453125 89.316406 219.664062 90.28125 C 217.6875 92.695312 218.878906 123.332031 218.917969 135.199219 C 218.878906 147.070312 217.6875 177.707031 219.664062 180.117188 C 220.453125 181.085938 235.175781 181.117188 235.730469 180.117188 C 237.40625 177.125 236.238281 147.320312 236.179688 135.199219 C 236.238281 123.078125 237.40625 93.277344 235.730469 90.28125 Z M 235.730469 90.28125 " fill-opacity="1" fill-rule="nonzero"/><path fill="#a8d7cf" d="M 234.328125 98.023438 C 233.867188 97.199219 221.683594 97.222656 221.027344 98.023438 C 219.394531 100.019531 220.378906 125.378906 220.410156 135.199219 C 220.378906 145.023438 219.394531 170.378906 221.027344 172.378906 C 221.683594 173.179688 233.867188 173.203125 234.328125 172.378906 C 235.710938 169.902344 234.746094 145.234375 234.699219 135.199219 C 234.746094 125.167969 235.710938 100.5 234.328125 98.023438 Z M 234.328125 98.023438 " fill-opacity="1" fill-rule="nonzero"/><path fill="#ed8876" d="M 193.214844 90.28125 C 192.65625 89.285156 177.9375 89.316406 177.148438 90.28125 C 175.171875 92.695312 176.363281 123.332031 176.402344 135.199219 C 176.363281 147.070312 175.171875 177.707031 177.148438 180.117188 C 177.9375 181.085938 192.65625 181.117188 193.214844 180.117188 C 194.890625 177.125 193.722656 147.320312 193.664062 135.199219 C 193.722656 123.078125 194.890625 93.277344 193.214844 90.28125 Z M 193.214844 90.28125 " fill-opacity="1" fill-rule="nonzero"/><path fill="#eea193" d="M 190.347656 106.070312 C 189.988281 105.425781 182.269531 105.671875 181.757812 106.300781 C 180.476562 107.863281 179.417969 127.503906 179.445312 135.203125 C 179.417969 142.898438 178.648438 162.765625 179.929688 164.332031 C 180.441406 164.960938 189.988281 164.976562 190.347656 164.332031 C 191.433594 162.390625 190.679688 143.0625 190.640625 135.203125 C 190.679688 127.339844 191.433594 108.011719 190.347656 106.070312 Z M 190.347656 106.070312 " fill-opacity="1" fill-rule="nonzero"/><path fill="#f7b07e" d="M 175.277344 98.085938 C 174.71875 97.175781 160 97.203125 159.210938 98.085938 C 157.234375 100.292969 158.425781 128.289062 158.464844 139.136719 C 158.425781 149.980469 157.234375 177.976562 159.210938 180.183594 C 160 181.066406 174.71875 181.09375 175.277344 180.183594 C 176.953125 177.449219 175.785156 150.210938 175.726562 139.136719 C 175.785156 128.058594 176.953125 100.824219 175.277344 98.085938 Z M 175.277344 98.085938 " fill-opacity="1" fill-rule="nonzero"/><path fill="#f3966e" d="M 175.988281 175.667969 C 176.082031 174.0625 176.136719 172.128906 176.164062 169.980469 L 158.109375 169.980469 C 158.148438 172.132812 158.222656 174.066406 158.339844 175.667969 Z M 175.988281 175.667969 " fill-opacity="1" fill-rule="nonzero"/><path fill="#f3966e" d="M 158.082031 110.757812 C 158.074219 111.734375 158.070312 112.742188 158.074219 113.769531 L 176.167969 113.769531 C 176.175781 112.742188 176.175781 111.738281 176.175781 110.757812 Z M 158.082031 110.757812 " fill-opacity="1" fill-rule="nonzero"/><path fill="#f3966e" d="M 176.164062 108.417969 C 176.152344 107.429688 176.136719 106.480469 176.113281 105.59375 L 158.179688 105.59375 C 158.148438 106.480469 158.125 107.425781 158.109375 108.417969 Z M 176.164062 108.417969 " fill-opacity="1" fill-rule="nonzero"/><path fill="#f7b07e" d="M 218.558594 91.082031 C 218.09375 90.039062 203.433594 88.71875 202.554688 89.613281 C 200.367188 91.835938 198.746094 122.449219 197.699219 134.273438 C 196.574219 146.089844 192.578125 176.488281 194.324219 179.070312 C 195.023438 180.105469 209.679688 181.484375 210.324219 180.542969 C 212.269531 177.714844 213.835938 147.929688 214.886719 135.851562 C 216.058594 123.789062 219.949219 94.214844 218.558594 91.082031 Z M 218.558594 91.082031 " fill-opacity="1" fill-rule="nonzero"/><path fill="#f49e6d" d="M 203.015625 102.519531 C 207.996094 103.828125 213.171875 104.179688 218.128906 105.527344 C 218.25 104.246094 218.355469 103.007812 218.449219 101.832031 C 212.523438 100.746094 206.597656 99.632812 200.683594 98.472656 C 200.546875 99.621094 200.410156 100.851562 200.28125 102.136719 C 201.1875 102.160156 202.105469 102.28125 203.015625 102.519531 Z M 203.015625 102.519531 " fill-opacity="1" fill-rule="nonzero"/><path fill="#f49e6d" d="M 212.074219 170.964844 C 212.269531 169.183594 212.457031 167.234375 212.640625 165.1875 C 212.457031 165.164062 212.269531 165.144531 212.085938 165.121094 C 206.273438 164.394531 200.410156 163.671875 194.734375 162.214844 C 194.558594 164.132812 194.394531 165.980469 194.265625 167.710938 C 200.109375 169.210938 206.089844 170.113281 212.074219 170.964844 Z M 212.074219 170.964844 " fill-opacity="1" fill-rule="nonzero"/><path fill="#ed8876" d="M 155.210938 166.355469 C 155.210938 171.484375 152.914062 176.273438 148.675781 179.128906 C 147.511719 179.910156 145.601562 181.050781 144.273438 181.503906 C 142.5625 182.089844 140.503906 182.546875 138.6875 182.546875 C 132.414062 182.546875 126.378906 178.683594 124.28125 172.757812 C 123.640625 170.933594 122.9375 168.296875 122.9375 166.355469 C 122.9375 162.332031 122.9375 158.515625 126.40625 155.300781 C 128.757812 153.128906 133.445312 151.125 138.160156 152.460938 C 138.453125 152.542969 138.765625 152.441406 139.074219 152.441406 C 139.382812 152.441406 139.703125 152.546875 139.996094 152.460938 C 144.738281 151.082031 149.613281 152.503906 151.949219 156.203125 C 153.550781 158.734375 155.210938 162.71875 155.210938 166.355469 Z M 155.210938 166.355469 " fill-opacity="1" fill-rule="nonzero"/><g clip-path="url(#1e9d5bcb26)"><path stroke-linecap="round" transform="matrix(0.446345, 0, 0, 0.446097, 87.776586, 42.168619)" fill="none" stroke-linejoin="miter" d="M 109.703369 235.242193 C 111.138636 234.979497 113.020237 237.448833 113.501576 238.622206 C 114.009171 239.830604 114.315478 241.074029 114.683046 242.291184 C 115.103124 243.674712 115.190641 245.137049 115.40068 246.59063 C 115.505699 247.31742 115.750745 248.105506 115.680732 248.84981 " stroke="#ed8876" stroke-width="3.457" stroke-opacity="1" stroke-miterlimit="10"/></g><path stroke-linecap="round" transform="matrix(0.446345, 0, 0, 0.446097, 87.776586, 42.168619)" fill="none" stroke-linejoin="round" d="M 121.719356 232.860422 C 121.439304 233.674777 121.710604 234.743072 121.553075 235.618723 C 121.351788 236.730799 121.036729 237.877902 120.310344 238.76231 C 119.548952 239.71677 116.590901 241.109055 115.409432 240.399777 C 114.061681 239.585422 115.917026 236.170383 116.52964 235.347271 C 117.527326 234.007525 119.758991 232.553944 121.500565 232.720318 " stroke="#ed8876" stroke-width="3.457" stroke-opacity="1" stroke-miterlimit="10"/><path fill="#ee9d8f" d="M 131.28125 155.332031 C 130.902344 155.464844 130.535156 155.476562 130.164062 155.621094 C 129.875 155.734375 129.585938 155.863281 129.3125 156 C 128.714844 156.300781 128.207031 156.789062 127.886719 157.367188 C 127.535156 158.003906 127.226562 158.59375 127.226562 159.355469 C 127.226562 159.957031 127.160156 160.835938 127.488281 161.324219 C 127.765625 160.910156 127.777344 160.136719 127.933594 159.621094 C 128.132812 158.957031 128.542969 158.367188 128.9375 157.796875 C 129.394531 157.132812 130.011719 156.585938 130.742188 156.253906 C 131.28125 156.003906 131.871094 155.632812 132.453125 155.550781 C 131.808594 155.269531 130.972656 155.484375 130.3125 155.554688 " fill-opacity="1" fill-rule="nonzero"/><g clip-path="url(#ec9d50b7bd)"><path fill="#ca9e67" d="M 248.964844 182.023438 C 248.964844 183.335938 248.171875 184.402344 247.191406 184.402344 C 246.214844 184.402344 245.234375 184.40625 244.257812 184.402344 C 241.46875 184.398438 238.679688 184.398438 235.894531 184.402344 C 231.828125 184.40625 227.757812 184.40625 223.691406 184.40625 C 218.59375 184.402344 213.652344 184.53125 208.554688 184.53125 C 198.503906 184.53125 188.503906 184.703125 178.453125 184.699219 C 171.410156 184.699219 164.101562 184.699219 157.054688 184.699219 C 151.890625 184.699219 146.789062 184.390625 141.625 184.386719 C 137.671875 184.382812 133.558594 184.546875 129.605469 184.5625 C 126.328125 184.574219 123.214844 184.398438 119.9375 184.308594 C 118.300781 184.261719 116.6875 184.585938 116.402344 182.527344 C 116.242188 181.386719 116.714844 179.644531 118.175781 179.644531 C 119.136719 179.644531 120.097656 179.636719 121.054688 179.640625 C 123.820312 179.652344 126.582031 179.660156 129.347656 179.652344 C 140.65625 179.628906 151.964844 179.6875 163.277344 179.644531 C 174.703125 179.613281 186.128906 179.71875 197.554688 179.65625 C 206.035156 179.609375 214.515625 179.652344 222.996094 179.703125 C 226.949219 179.726562 230.898438 179.617188 234.851562 179.539062 C 238.417969 179.46875 241.472656 179.496094 245.570312 179.738281 C 247.265625 179.835938 248.964844 179.675781 248.964844 182.023438 Z M 248.964844 182.023438 " fill-opacity="1" fill-rule="nonzero"/></g><g fill="#9c7150" fill-opacity="1"><g transform="translate(94.988489, 238.275914)"><g><path d="M 1.09375 -31.8125 L 8.8125 -31.8125 L 17.125 -9.40625 L 25.4375 -31.8125 L 32.984375 -31.8125 L 20.125 0.234375 L 13.953125 0.234375 Z M 1.09375 -31.8125 "/></g></g></g><g fill="#9c7150" fill-opacity="1"><g transform="translate(125.738735, 238.275914)"><g><path d="M 3.8125 -31.8125 L 27.8125 -31.8125 L 27.8125 -25.578125 L 10.765625 -25.578125 L 10.765625 -19.125 L 25.765625 -19.125 L 25.765625 -12.90625 L 10.765625 -12.90625 L 10.765625 -6.21875 L 28.03125 -6.21875 L 28.03125 0 L 3.8125 0 Z M 3.8125 -31.8125 "/></g></g></g><g fill="#9c7150" fill-opacity="1"><g transform="translate(152.8551, 238.275914)"><g><path d="M 3.8125 -31.8125 L 18.359375 -31.8125 C 22.390625 -31.8125 25.476562 -30.734375 27.625 -28.578125 C 29.445312 -26.765625 30.359375 -24.34375 30.359375 -21.3125 L 30.359375 -21.21875 C 30.359375 -18.644531 29.726562 -16.546875 28.46875 -14.921875 C 27.207031 -13.304688 25.5625 -12.117188 23.53125 -11.359375 L 31.3125 0 L 23.125 0 L 16.3125 -10.171875 L 10.8125 -10.171875 L 10.8125 0 L 3.8125 0 Z M 17.90625 -16.359375 C 19.632812 -16.359375 20.957031 -16.765625 21.875 -17.578125 C 22.800781 -18.398438 23.265625 -19.492188 23.265625 -20.859375 L 23.265625 -20.953125 C 23.265625 -22.460938 22.78125 -23.59375 21.8125 -24.34375 C 20.84375 -25.101562 19.492188 -25.484375 17.765625 -25.484375 L 10.8125 -25.484375 L 10.8125 -16.359375 Z M 17.90625 -16.359375 "/></g></g></g><g fill="#9c7150" fill-opacity="1"><g transform="translate(182.378924, 238.275914)"><g><path d="M 3.8125 -31.8125 L 18.359375 -31.8125 C 22.390625 -31.8125 25.476562 -30.734375 27.625 -28.578125 C 29.445312 -26.765625 30.359375 -24.34375 30.359375 -21.3125 L 30.359375 -21.21875 C 30.359375 -18.644531 29.726562 -16.546875 28.46875 -14.921875 C 27.207031 -13.304688 25.5625 -12.117188 23.53125 -11.359375 L 31.3125 0 L 23.125 0 L 16.3125 -10.171875 L 10.8125 -10.171875 L 10.8125 0 L 3.8125 0 Z M 17.90625 -16.359375 C 19.632812 -16.359375 20.957031 -16.765625 21.875 -17.578125 C 22.800781 -18.398438 23.265625 -19.492188 23.265625 -20.859375 L 23.265625 -20.953125 C 23.265625 -22.460938 22.78125 -23.59375 21.8125 -24.34375 C 20.84375 -25.101562 19.492188 -25.484375 17.765625 -25.484375 L 10.8125 -25.484375 L 10.8125 -16.359375 Z M 17.90625 -16.359375 "/></g></g></g><g fill="#9c7150" fill-opacity="1"><g transform="translate(211.902749, 238.275914)"><g><path d="M 3.8125 -31.8125 L 18.578125 -31.8125 C 22.242188 -31.8125 25.019531 -30.867188 26.90625 -28.984375 C 28.351562 -27.535156 29.078125 -25.734375 29.078125 -23.578125 L 29.078125 -23.484375 C 29.078125 -22.578125 28.960938 -21.773438 28.734375 -21.078125 C 28.515625 -20.378906 28.210938 -19.75 27.828125 -19.1875 C 27.453125 -18.632812 27.015625 -18.144531 26.515625 -17.71875 C 26.015625 -17.289062 25.476562 -16.925781 24.90625 -16.625 C 26.75 -15.925781 28.203125 -14.976562 29.265625 -13.78125 C 30.328125 -12.59375 30.859375 -10.9375 30.859375 -8.8125 L 30.859375 -8.71875 C 30.859375 -7.269531 30.578125 -6 30.015625 -4.90625 C 29.453125 -3.8125 28.644531 -2.898438 27.59375 -2.171875 C 26.550781 -1.453125 25.296875 -0.910156 23.828125 -0.546875 C 22.359375 -0.179688 20.734375 0 18.953125 0 L 3.8125 0 Z M 22.125 -22.40625 C 22.125 -23.457031 21.726562 -24.265625 20.9375 -24.828125 C 20.15625 -25.390625 19.019531 -25.671875 17.53125 -25.671875 L 10.625 -25.671875 L 10.625 -18.953125 L 17.078125 -18.953125 C 18.628906 -18.953125 19.859375 -19.210938 20.765625 -19.734375 C 21.671875 -20.265625 22.125 -21.125 22.125 -22.3125 Z M 23.90625 -9.671875 C 23.90625 -10.734375 23.492188 -11.570312 22.671875 -12.1875 C 21.859375 -12.8125 20.539062 -13.125 18.71875 -13.125 L 10.625 -13.125 L 10.625 -6.140625 L 18.953125 -6.140625 C 20.492188 -6.140625 21.703125 -6.414062 22.578125 -6.96875 C 23.460938 -7.53125 23.90625 -8.40625 23.90625 -9.59375 Z M 23.90625 -9.671875 "/></g></g></g><g fill="#9c7150" fill-opacity="1"><g transform="translate(241.381152, 238.275914)"><g><path d="M 19.265625 0.546875 C 16.804688 0.546875 14.546875 0.113281 12.484375 -0.75 C 10.429688 -1.613281 8.65625 -2.78125 7.15625 -4.25 C 5.65625 -5.71875 4.488281 -7.441406 3.65625 -9.421875 C 2.820312 -11.410156 2.40625 -13.539062 2.40625 -15.8125 L 2.40625 -15.90625 C 2.40625 -18.175781 2.828125 -20.300781 3.671875 -22.28125 C 4.523438 -24.269531 5.703125 -26.015625 7.203125 -27.515625 C 8.703125 -29.015625 10.488281 -30.191406 12.5625 -31.046875 C 14.632812 -31.910156 16.898438 -32.34375 19.359375 -32.34375 C 21.804688 -32.34375 24.0625 -31.910156 26.125 -31.046875 C 28.1875 -30.191406 29.96875 -29.03125 31.46875 -27.5625 C 32.96875 -26.09375 34.132812 -24.363281 34.96875 -22.375 C 35.800781 -20.394531 36.21875 -18.269531 36.21875 -16 L 36.21875 -15.90625 C 36.21875 -13.632812 35.789062 -11.503906 34.9375 -9.515625 C 34.09375 -7.535156 32.921875 -5.796875 31.421875 -4.296875 C 29.921875 -2.796875 28.132812 -1.613281 26.0625 -0.75 C 23.988281 0.113281 21.722656 0.546875 19.265625 0.546875 Z M 19.359375 -5.90625 C 20.753906 -5.90625 22.039062 -6.160156 23.21875 -6.671875 C 24.394531 -7.191406 25.398438 -7.90625 26.234375 -8.8125 C 27.066406 -9.71875 27.71875 -10.769531 28.1875 -11.96875 C 28.65625 -13.164062 28.890625 -14.445312 28.890625 -15.8125 L 28.890625 -15.90625 C 28.890625 -17.269531 28.65625 -18.554688 28.1875 -19.765625 C 27.71875 -20.972656 27.050781 -22.03125 26.1875 -22.9375 C 25.332031 -23.851562 24.3125 -24.578125 23.125 -25.109375 C 21.945312 -25.640625 20.660156 -25.90625 19.265625 -25.90625 C 17.835938 -25.90625 16.539062 -25.644531 15.375 -25.125 C 14.207031 -24.613281 13.207031 -23.898438 12.375 -22.984375 C 11.539062 -22.078125 10.890625 -21.023438 10.421875 -19.828125 C 9.953125 -18.628906 9.71875 -17.351562 9.71875 -16 L 9.71875 -15.90625 C 9.71875 -14.539062 9.953125 -13.25 10.421875 -12.03125 C 10.890625 -10.820312 11.554688 -9.765625 12.421875 -8.859375 C 13.285156 -7.953125 14.300781 -7.234375 15.46875 -6.703125 C 16.632812 -6.171875 17.929688 -5.90625 19.359375 -5.90625 Z M 19.359375 -5.90625 "/></g></g></g><g fill="#9c7150" fill-opacity="1"><g transform="translate(147.130544, 262.784503)"><g><path d="M 5.21875 -10.28125 L 6.296875 -10.28125 L 10.953125 0 L 9.71875 0 L 8.515625 -2.703125 L 2.96875 -2.703125 L 1.75 0 L 0.5625 0 Z M 8.078125 -3.734375 L 5.75 -8.953125 L 3.421875 -3.734375 Z M 8.078125 -3.734375 "/></g></g></g><g fill="#9c7150" fill-opacity="1"><g transform="translate(159.08264, 262.784503)"><g><path d="M 6.109375 0.171875 C 5.367188 0.171875 4.6875 0.0351562 4.0625 -0.234375 C 3.445312 -0.503906 2.910156 -0.875 2.453125 -1.34375 C 1.992188 -1.820312 1.632812 -2.378906 1.375 -3.015625 C 1.125 -3.660156 1 -4.347656 1 -5.078125 L 1 -5.109375 C 1 -5.828125 1.125 -6.503906 1.375 -7.140625 C 1.632812 -7.785156 1.992188 -8.347656 2.453125 -8.828125 C 2.910156 -9.316406 3.453125 -9.695312 4.078125 -9.96875 C 4.710938 -10.25 5.40625 -10.390625 6.15625 -10.390625 C 6.625 -10.390625 7.046875 -10.347656 7.421875 -10.265625 C 7.796875 -10.191406 8.144531 -10.082031 8.46875 -9.9375 C 8.789062 -9.800781 9.085938 -9.632812 9.359375 -9.4375 C 9.628906 -9.238281 9.890625 -9.015625 10.140625 -8.765625 L 9.359375 -7.921875 C 8.921875 -8.328125 8.445312 -8.660156 7.9375 -8.921875 C 7.4375 -9.191406 6.835938 -9.328125 6.140625 -9.328125 C 5.578125 -9.328125 5.054688 -9.21875 4.578125 -9 C 4.097656 -8.789062 3.675781 -8.492188 3.3125 -8.109375 C 2.957031 -7.734375 2.679688 -7.289062 2.484375 -6.78125 C 2.285156 -6.269531 2.1875 -5.722656 2.1875 -5.140625 L 2.1875 -5.109375 C 2.1875 -4.515625 2.285156 -3.960938 2.484375 -3.453125 C 2.679688 -2.941406 2.957031 -2.492188 3.3125 -2.109375 C 3.675781 -1.734375 4.097656 -1.4375 4.578125 -1.21875 C 5.054688 -1 5.578125 -0.890625 6.140625 -0.890625 C 6.835938 -0.890625 7.441406 -1.015625 7.953125 -1.265625 C 8.460938 -1.523438 8.957031 -1.890625 9.4375 -2.359375 L 10.203125 -1.625 C 9.941406 -1.351562 9.664062 -1.101562 9.375 -0.875 C 9.09375 -0.65625 8.785156 -0.46875 8.453125 -0.3125 C 8.117188 -0.164062 7.757812 -0.0507812 7.375 0.03125 C 7 0.125 6.578125 0.171875 6.109375 0.171875 Z M 6.109375 0.171875 "/></g></g></g><g fill="#9c7150" fill-opacity="1"><g transform="translate(170.334261, 262.784503)"><g><path d="M 5.21875 -10.28125 L 6.296875 -10.28125 L 10.953125 0 L 9.71875 0 L 8.515625 -2.703125 L 2.96875 -2.703125 L 1.75 0 L 0.5625 0 Z M 8.078125 -3.734375 L 5.75 -8.953125 L 3.421875 -3.734375 Z M 8.078125 -3.734375 "/></g></g></g><g fill="#9c7150" fill-opacity="1"><g transform="translate(182.286357, 262.784503)"><g><path d="M 1.4375 -10.21875 L 4.984375 -10.21875 C 5.785156 -10.21875 6.519531 -10.085938 7.1875 -9.828125 C 7.851562 -9.566406 8.425781 -9.207031 8.90625 -8.75 C 9.382812 -8.300781 9.753906 -7.765625 10.015625 -7.140625 C 10.285156 -6.523438 10.421875 -5.859375 10.421875 -5.140625 L 10.421875 -5.109375 C 10.421875 -4.390625 10.285156 -3.71875 10.015625 -3.09375 C 9.753906 -2.46875 9.382812 -1.925781 8.90625 -1.46875 C 8.425781 -1.007812 7.851562 -0.648438 7.1875 -0.390625 C 6.519531 -0.128906 5.785156 0 4.984375 0 L 1.4375 0 Z M 2.59375 -9.15625 L 2.59375 -1.0625 L 4.984375 -1.0625 C 5.628906 -1.0625 6.210938 -1.160156 6.734375 -1.359375 C 7.265625 -1.566406 7.710938 -1.851562 8.078125 -2.21875 C 8.441406 -2.582031 8.722656 -3.007812 8.921875 -3.5 C 9.117188 -3.988281 9.21875 -4.515625 9.21875 -5.078125 L 9.21875 -5.109375 C 9.21875 -5.671875 9.117188 -6.195312 8.921875 -6.6875 C 8.722656 -7.175781 8.441406 -7.601562 8.078125 -7.96875 C 7.710938 -8.332031 7.265625 -8.617188 6.734375 -8.828125 C 6.210938 -9.046875 5.628906 -9.15625 4.984375 -9.15625 Z M 2.59375 -9.15625 "/></g></g></g><g fill="#9c7150" fill-opacity="1"><g transform="translate(194.1217, 262.784503)"><g><path d="M 1.4375 -10.21875 L 8.828125 -10.21875 L 8.828125 -9.171875 L 2.59375 -9.171875 L 2.59375 -5.671875 L 8.171875 -5.671875 L 8.171875 -4.625 L 2.59375 -4.625 L 2.59375 -1.046875 L 8.90625 -1.046875 L 8.90625 0 L 1.4375 0 Z M 1.4375 -10.21875 "/></g></g></g><g fill="#9c7150" fill-opacity="1"><g transform="translate(204.322609, 262.784503)"><g><path d="M 1.4375 -10.21875 L 2.609375 -10.21875 L 6.328125 -4.640625 L 10.0625 -10.21875 L 11.21875 -10.21875 L 11.21875 0 L 10.0625 0 L 10.0625 -8.28125 L 6.34375 -2.796875 L 6.296875 -2.796875 L 2.5625 -8.265625 L 2.5625 0 L 1.4375 0 Z M 1.4375 -10.21875 "/></g></g></g><g fill="#9c7150" fill-opacity="1"><g transform="translate(217.412969, 262.784503)"><g><path d="M 4.640625 -4.046875 L 0.390625 -10.21875 L 1.796875 -10.21875 L 5.234375 -5.109375 L 8.71875 -10.21875 L 10.0625 -10.21875 L 5.8125 -4.0625 L 5.8125 0 L 4.640625 0 Z M 4.640625 -4.046875 "/></g></g></g></svg>